# xmcd
#
# Track frame offsets: 
#        150
#        11406
#        21482
#        35652
#        47088
#        61473
#        74166
#        87170
#        100301
#        113351
#        126103
#        137746
#        150292
#        160599
#        170485
#        185911
#        197871
#        209380
#        221008
#        232333
#        245655
#        254811
#
# Disc length: 3563 seconds
#
# Revision: 0
# Processed by: cddbd v1.5.2PL0 Copyright (c) Steve Scherf et al.
# Submitted via: ExactAudioCopy v1.3
#
DISCID=4c0de916
DTITLE=Various Artist - Blues Icons - CD2
DYEAR=2017
DGENRE=Blues
TTITLE0=Goin' down highway 51 (John Lee Hooker)
TTITLE1=Dimples (John Lee Hooker)
TTITLE2=Boogie chillen (John Lee Hooker)
TTITLE3=Boom, boom (John Lee Hooker)
TTITLE4=Sally Mae (John Lee Hooker)
TTITLE5=She's long, she's tall, she weeps like a willow tree (John Lee
TTITLE5=Hooker)
TTITLE6=Johnny Lee's original boogie (John Lee Hooker)
TTITLE7=Moanin' at midnight (Howlin' Wolf)
TTITLE8=Evil (is going on) (Howlin' Wolf)
TTITLE9=How many more years (Howlin' Wolf)
TTITLE10=Howlin' for my darlin (Howlin' Wolf)
TTITLE11=Little baby (Howlin' Wolf)
TTITLE12=Shake for me (Howlin' Wolf)
TTITLE13=Down in the bottom (Howlin' Wolf)
TTITLE14=Goin' down slow (Howlin' Wolf)
TTITLE15=Confessin' the blues (B.B. King)
TTITLE16=Did you ever love a woman (B.B. King)
TTITLE17=Early in the morning (B.B. King)
TTITLE18=Shake it up and go (B.B. King)
TTITLE19=Wake up this morning (B.B. King)
TTITLE20=My baby's gone (B.B. King)
TTITLE21=Ten long years (B.B. King)
EXTD=
EXTT0=
EXTT1=
EXTT2=
EXTT3=
EXTT4=
EXTT5=
EXTT6=
EXTT7=
EXTT8=
EXTT9=
EXTT10=
EXTT11=
EXTT12=
EXTT13=
EXTT14=
EXTT15=
EXTT16=
EXTT17=
EXTT18=
EXTT19=
EXTT20=
EXTT21=
PLAYORDER=
